<svg width="36" height="62" viewBox="0 0 36 62" fill="none" xmlns="http://www.w3.org/2000/svg">
<path d="M32.1659 7.8334C28.8329 3.0001 23.3329 0.166748 17.6659 0.166748C12.8329 0.166748 8.33295 2.1667 4.99995 5.6667C0.665949 10.1667 -0.834051 16.6667 1.16595 23.0001C2.49995 27.3334 4.66594 36.8334 5.33294 51.0001C5.33294 57.0001 10.9999 61.8334 17.8329 61.8334C24.8329 61.8334 30.3329 57.0001 30.3329 51.1667C31.6659 35.3334 33.666 26.5001 34.666 22.6667C36 17.3334 35.1659 12.0001 32.1659 7.8334ZM31.3329 21.8334C29.9999 26.6667 28.1659 35.6668 26.8329 51.0001C26.8329 55.1668 22.6659 58.5001 17.6659 58.5001C12.6659 58.5001 8.49995 55.1668 8.49995 51.0001C7.99995 36.3334 5.66594 26.5001 4.33294 22.0001C2.83294 17.0001 3.99995 11.6667 7.49995 8.0001C10.3329 5.1667 13.9999 3.5001 17.8329 3.5001C22.4999 3.5001 26.8329 5.8334 29.6659 9.6667C31.8329 13.1667 32.4999 17.5001 31.3329 21.8334Z" fill="url(#paint0_radial)"/>
<defs>
<radialGradient id="paint0_radial" cx="0" cy="0" r="1" gradientUnits="userSpaceOnUse" gradientTransform="translate(17.7869 0.166748) rotate(90) scale(61.6667 34.9888)">
<stop stop-color="#EB9038"/>
<stop offset="0.515625" stop-color="#F3C3CF"/>
<stop offset="1" stop-color="#8DC4F3"/>
</radialGradient>
</defs>
</svg>
